# xmcd
#
# Track frame offsets: 
#        150
#        16147
#        30550
#        42289
#        56602
#        66996
#        78369
#        91897
#        105953
#        116766
#        141424
#        173529
#        182309
#        196859
#        205661
#        225397
#        244236
#        258225
#        259979
#        271667
#
# Disc length: 3924 seconds
#
# Revision: 0
# Processed by: cddbd v1.5.2PL0 Copyright (c) Steve Scherf et al.
# Submitted via: ExactAudioCopy v0.99pb4
#
DISCID=fe0f5214
DTITLE=Fabrizio De Andre' - Vol. 1 and Tutti morimmo a stento
DYEAR=2001
DGENRE=Blues
TTITLE0=Preghiera in Gennaio
TTITLE1=Marcia nuziale
TTITLE2=Spiritual
TTITLE3=Si chiamava Gesu'
TTITLE4=La canzone di Barbara
TTITLE5=Via del Campo
TTITLE6=La stagione del tuo amore
TTITLE7=Bocca di Rosa
TTITLE8=La morte
TTITLE9=Carlo Martello ritorna dalla battaglia di Poitiers
TTITLE10=Cantico dei drogati
TTITLE11=Primo intermezzo
TTITLE12=Leggenda di Natale
TTITLE13=Secondo intermezzo
TTITLE14=Ballata degli impiccati
TTITLE15=Inverno
TTITLE16=Girotondo
TTITLE17=Terzo intermezzo
TTITLE18=Recitatito (due invocazioni ed un atto d'accusa)
TTITLE19=Corale (leggenda del re infelice)
EXTD=
EXTT0=
EXTT1=
EXTT2=
EXTT3=
EXTT4=
EXTT5=
EXTT6=
EXTT7=
EXTT8=
EXTT9=
EXTT10=
EXTT11=
EXTT12=
EXTT13=
EXTT14=
EXTT15=
EXTT16=
EXTT17=
EXTT18=
EXTT19=
PLAYORDER=
